<?xml version="1.0" standalone="no"?>
<!DOCTYPE svg PUBLIC "-//W3C//DTD SVG 20010904//EN"
 "http://www.w3.org/TR/2001/REC-SVG-20010904/DTD/svg10.dtd">
<svg version="1.0" xmlns="http://www.w3.org/2000/svg"
 width="256.000000pt" height="256.000000pt" viewBox="0 0 256.000000 256.000000"
 preserveAspectRatio="xMidYMid meet">

<g transform="translate(0.000000,256.000000) scale(0.100000,-0.100000)"
fill="#3088d4" stroke="none">
<path d="M0 1280 l0 -1280 326 0 325 0 -20 26 c-31 40 -80 204 -146 499 -69
306 -100 485 -116 675 -11 128 -10 157 4 237 10 50 30 122 45 161 l29 69 -24
23 c-61 59 -103 190 -103 320 0 157 41 258 150 370 73 76 167 127 291 160 l74
19 -417 0 -418 1 0 -1280z"/>
<path d="M1090 2544 c84 -23 139 -54 201 -114 73 -72 99 -115 99 -165 -1 -89
-56 -100 -146 -29 -106 83 -145 97 -267 102 -100 4 -111 2 -161 -22 -70 -34
-158 -128 -180 -192 -20 -59 -21 -160 -1 -207 18 -43 29 -51 44 -33 6 7 44 28
83 47 67 31 82 34 186 37 93 3 125 0 182 -17 38 -12 71 -25 74 -30 3 -5 -1
-33 -10 -62 -24 -87 -30 -320 -10 -399 53 -205 189 -329 411 -374 27 -6 25 -4
-16 23 -25 16 -65 51 -88 77 -100 113 -131 208 -132 392 0 177 36 323 102 401
l20 24 17 -23 c9 -13 28 -42 42 -65 84 -133 106 -165 116 -161 6 2 44 10 85
17 62 10 87 10 156 -3 l82 -15 110 111 c75 76 113 108 120 101 16 -16 31 -184
31 -354 0 -126 -4 -169 -21 -232 -41 -153 -157 -274 -300 -317 l-58 -17 -47
-195 c-170 -713 -170 -713 -218 -793 l-35 -57 500 0 499 0 0 1280 0 1280 -762
-1 c-689 0 -758 -2 -708 -15z"/>
<path d="M852 868 c-37 -46 -54 -138 -72 -393 -25 -361 -29 -397 -48 -436
l-19 -39 193 0 c107 0 194 2 194 5 0 3 -6 16 -14 28 -25 40 -44 152 -81 472
-31 269 -40 310 -78 353 -22 24 -59 29 -75 10z"/>
<path d="M1347 670 c-30 -24 -60 -109 -83 -230 -8 -47 -21 -121 -29 -165 -30
-162 -37 -191 -60 -232 l-24 -43 175 0 174 0 -17 27 c-16 25 -18 52 -15 283 3
277 -3 327 -46 360 -31 25 -43 25 -75 0z"/>
</g>
</svg>
