<?xml version="1.0"  encoding="utf-8"?>
<svg version="1.0" xmlns="http://www.w3.org/2000/svg" width="1024pt" height="1024pt" viewBox="0 0 1024 1024" preserveAspectRatio="xMidYMid meet">
<g transform="translate(0,1024) scale(0.1,-0.1)" fill="#000000" stroke="none">
<path d="M4426 9444 c-367 -49 -753 -185 -1056 -373 -230 -143 -537 -422 -707 -641 -321 -416 -536 -930 -608 -1450 -22 -161 -30 -497 -16 -645 45 -464 167 -878 363 -1230 152 -274 286 -450 495 -656 243 -238 443 -384 703 -513 713 -353 1546 -364 2209 -31 191 96 328 195 510 370 l94 90 -7 -216 c-12 -402 -48 -608 -148 -848 -121 -291 -295 -503 -543 -663 -144 -93 -248 -136 -451 -187 -177 -43 -237 -51 -406 -52 -243 -1 -443 32 -688 116 -198 68 -500 217 -642 317 l-27 18 -55 -102 c-30 -57 -194 -364 -364 -683 l-309 -580 66 -49 c465 -344 1044 -564 1716 -651 192 -25 749 -17 955 14 499 74 920 213 1270 421 338 199 652 502 862 830 299 468 468 990 545 1690 15 142 17 389 20 2848 l4 2692 -911 0 -910 0 0 -262 0 -261 -112 109 c-124 121 -190 173 -319 257 -239 154 -518 255 -859 313 -136 23 -530 28 -674 8z m889 -1634 c86 -16 268 -77 350 -118 177 -88 365 -246 475 -399 208 -290 283 -656 204 -991 -120 -510 -532 -903 -1034 -987 -121 -21 -341 -16 -453 10 -180 40 -387 143 -543 269 -293 236 -463 587 -465 961 -1 277 104 562 300 808 173 218 497 406 779 452 96 16 286 13 387 -5z"/></g>
</svg>
